<svg xmlns="http://www.w3.org/2000/svg" width="17.575" height="19.528" viewBox="0 0 17.575 19.528">
  <path id="calender" d="M7.465,23.528A1.5,1.5,0,0,1,6,22.063V6.929A1.5,1.5,0,0,1,7.465,5.465H9.051V4h1.587V5.465h8.3V4h1.587V5.465H22.11a1.5,1.5,0,0,1,1.465,1.465V22.063a1.5,1.5,0,0,1-1.465,1.465Zm0-1.465H22.11v-10.5H7.465Zm0-11.961H22.11V6.929H7.465Zm0,0v0Zm7.323,5.614a.959.959,0,1,1,.7-.281A.945.945,0,0,1,14.788,15.717Zm-3.906,0a.959.959,0,1,1,.7-.281A.945.945,0,0,1,10.882,15.717Zm7.811,0a.959.959,0,1,1,.7-.281A.945.945,0,0,1,18.693,15.717Zm-3.906,3.906a.959.959,0,1,1,.7-.281A.945.945,0,0,1,14.788,19.622Zm-3.906,0a.959.959,0,1,1,.7-.281A.945.945,0,0,1,10.882,19.622Zm7.811,0a.959.959,0,1,1,.7-.281A.945.945,0,0,1,18.693,19.622Z" transform="translate(-6 -4)" fill="#707070"/>
</svg>
