<svg xmlns="http://www.w3.org/2000/svg" width="19.355" height="19.355" viewBox="0 0 19.355 19.355">
  <path id="clock" d="M17.234,18.347l1.089-1.089-3.847-3.871V8.524H13.024v5.444Zm-3.556,5.008a9.364,9.364,0,0,1-3.75-.762,9.75,9.75,0,0,1-5.165-5.165,9.607,9.607,0,0,1,0-7.5A9.75,9.75,0,0,1,9.927,4.762a9.607,9.607,0,0,1,7.5,0,9.75,9.75,0,0,1,5.165,5.165,9.607,9.607,0,0,1,0,7.5,9.75,9.75,0,0,1-5.165,5.165A9.364,9.364,0,0,1,13.677,23.355ZM13.677,13.677Zm0,8.226a7.919,7.919,0,0,0,5.806-2.419A7.919,7.919,0,0,0,21.9,13.677a7.919,7.919,0,0,0-2.419-5.806,7.919,7.919,0,0,0-5.806-2.419A7.919,7.919,0,0,0,7.871,7.871a7.919,7.919,0,0,0-2.419,5.806,7.919,7.919,0,0,0,2.419,5.806A7.919,7.919,0,0,0,13.677,21.9Z" transform="translate(-4 -4)" fill="#707070"/>
</svg>
