<svg xmlns="http://www.w3.org/2000/svg" width="32" height="32" viewBox="0 0 32 32">
  <g id="email" transform="translate(-1297 -1860)">
    <rect id="Rectangle_125" data-name="Rectangle 125" width="32" height="32" transform="translate(1297 1860)" fill="none"/>
    <path id="envelope-solid" d="M29,64a3,3,0,0,1,1.8,5.4L17.2,79.6a2.006,2.006,0,0,1-2.4,0L1.2,69.4A3,3,0,0,1,3,64ZM13.6,81.2a3.994,3.994,0,0,0,4.8,0L32,71V84a4,4,0,0,1-4,4H4a4,4,0,0,1-4-4V71Z" transform="translate(1297 1800)" fill="#03d3a9"/>
  </g>
</svg>
