<svg xmlns="http://www.w3.org/2000/svg" width="32" height="32" viewBox="0 0 32 32">
  <g id="linkedin" transform="translate(-1240 -1864)">
    <rect id="Rectangle_126" data-name="Rectangle 126" width="32" height="32" transform="translate(1240 1864)" fill="none"/>
    <path id="linkedin-in-brands" d="M7.163,32.009H.529V10.645H7.163ZM3.842,7.731A3.86,3.86,0,1,1,7.684,3.852,3.875,3.875,0,0,1,3.842,7.731ZM31.993,32.009h-6.62v-10.4c0-2.479-.05-5.657-3.449-5.657-3.449,0-3.978,2.693-3.978,5.479V32.009H11.319V10.645h6.363v2.914h.093a6.971,6.971,0,0,1,6.277-3.45c6.714,0,7.949,4.421,7.949,10.164V32.009Z" transform="translate(1240 1863.99)" fill="#03d3a9"/>
  </g>
</svg>
