<svg xmlns="http://www.w3.org/2000/svg" width="32" height="32" viewBox="0 0 32 32">
  <g id="share" transform="translate(-1146 -1870)">
    <rect id="Rectangle_144" data-name="Rectangle 144" width="32" height="32" transform="translate(1146 1870)" fill="none"/>
    <path id="share-solid" d="M18.995,32.154a1.982,1.982,0,0,0-1.176,1.807v3.96H10.89A10.89,10.89,0,0,0,0,48.81,12.133,12.133,0,0,0,6.2,59.582a1.014,1.014,0,0,0,.5.118A1.221,1.221,0,0,0,7.92,58.481a1.709,1.709,0,0,0-.606-1.207A4.641,4.641,0,0,1,5.94,53.76a5.941,5.941,0,0,1,5.94-5.94h5.94v3.96a1.982,1.982,0,0,0,3.3,1.473l9.9-8.91a1.992,1.992,0,0,0,.656-1.473,1.97,1.97,0,0,0-.656-1.473l-9.9-8.91A1.965,1.965,0,0,0,18.995,32.154Z" transform="translate(1146 1840.02)" fill="#45c1ef"/>
  </g>
</svg>
